<?xml version="1.0" encoding="utf-8"?>
<!-- Generator: Adobe Illustrator 27.0.0, SVG Export Plug-In . SVG Version: 6.00 Build 0)  -->
<svg version="1.1" id="Layer_1" xmlns="http://www.w3.org/2000/svg" xmlns:xlink="http://www.w3.org/1999/xlink" x="0px" y="0px"
	 viewBox="0 0 595.28 154.02" style="enable-background:new 0 0 595.28 154.02;" xml:space="preserve">
<g>
	<path d="M540.89,127.31c-5.78,0-11.56,0-17.4,0c0-6.17,0-12.25,0-18.44c5.85,0,11.63,0,17.4,0
		C540.89,115.01,540.89,121.16,540.89,127.31z"/>
	<path d="M484.86,62.32c0-11.88,0-23.47,0-35.16c6.24,0,12.37,0,18.54,0c0,33.38,0,66.72,0,100.12c-5.88,0-11.7,0-17.63,0
		c0-2.07,0-4.13,0-6.51c-0.64,0.45-1.08,0.73-1.48,1.06c-4.71,3.87-10.05,6.38-16.12,7.08c-13.14,1.5-24.07-2.74-32.5-12.99
		c-5.82-7.07-8.8-15.25-8.66-24.4c0.25-16.39,10.73-33.31,31.33-36.45c8.93-1.36,17.25,0.38,24.6,5.9
		C483.47,61.37,484.03,61.74,484.86,62.32z M465.72,111.86c11.05,0.01,19.93-8.72,19.95-19.63c0.02-11.5-8.42-20.19-19.64-20.21
		c-11.55-0.02-20.16,8.3-20.18,19.48C445.83,103.16,454.31,111.84,465.72,111.86z"/>
	<path d="M107.41,58.05c-2.84,0-5.68-0.06-8.51,0.03c-1.11,0.04-1.46-0.38-1.59-1.37c-0.35-2.62-1.22-5.03-3.01-7.04
		c-2.14-2.4-4.96-3.43-8.06-3.74c-3.24-0.32-6.47-0.16-9.63,0.68c-3.64,0.96-6.05,3.22-6.78,6.96c-0.75,3.81,0.07,7.35,3.41,9.55
		c2.7,1.78,5.77,3.05,8.78,4.28c6.35,2.58,12.81,4.93,19.17,7.49c4.05,1.64,7.83,3.77,10.95,6.94c3.97,4.03,6.12,8.89,6.78,14.45
		c0.57,4.81,0.32,9.56-1.32,14.16c-2.37,6.66-7.08,11.16-13.38,14.11c-7.88,3.7-16.12,5.66-24.86,4.66
		c-9.02-1.03-17.26-4.06-23.92-10.43c-4.71-4.5-7.02-10.27-8.01-16.62c-0.15-0.98-0.26-1.98-0.35-2.97
		c-0.17-1.75,0.29-2.26,2.04-2.25c5.08,0.02,10.15,0.05,15.23,0.08c2.02,0.01,2.63,0.53,2.97,2.49c0.86,4.84,3.27,8.57,7.94,10.45
		c1.86,0.75,3.9,1.17,5.9,1.46c3.69,0.55,7.34,0.09,10.86-1.13c4.11-1.43,6.61-4.21,7.01-8.64c0.42-4.66-1.61-8.06-5.77-9.93
		c-5.05-2.27-10.26-4.19-15.4-6.27c-4.36-1.77-8.78-3.41-13.07-5.34c-10.14-4.57-16.15-14.87-15.26-25.94
		c0.93-11.55,7.11-19.23,17.81-23.23c8.64-3.22,17.55-4.16,26.57-1.56c7.51,2.16,14.07,5.85,18.7,12.38
		c3.16,4.46,4.52,9.53,4.88,14.92c0.07,1.1-0.32,1.45-1.43,1.42C113.17,58,110.29,58.05,107.41,58.05z"/>
	<path d="M272.08,127.24c0-2.05,0-4.07,0-6.35c-0.5,0.25-0.85,0.32-1.07,0.54c-4.75,4.68-10.64,6.82-17.11,7.47
		c-7.57,0.76-14.89-0.35-21.53-4.17c-10.71-6.17-17.17-15.48-18.68-27.72c-1.68-13.6,2.56-25.45,13.23-34.15
		c10.78-8.79,23.13-10.99,36.25-5.44c3.14,1.33,5.87,3.6,8.77,5.43c0-1.87,0-4.03,0-6.28c5.98,0,11.83,0,17.74,0
		c0,23.57,0,47.09,0,70.69C283.84,127.24,278.03,127.24,272.08,127.24z M232.1,91.91c0,11.31,8.63,20.04,19.84,20.07
		c11.25,0.02,19.98-8.62,19.98-19.79c0-11.7-8.42-20.25-19.94-20.25C240.68,71.94,232.1,80.56,232.1,91.91z"/>
	<path d="M415.19,106.01c-1.23,3.53-3.01,6.63-5.28,9.42c-8.27,10.17-19.09,14.46-32.03,13.58c-9.74-0.66-18.15-4.42-24.95-11.51
		c-4.93-5.14-7.73-11.35-9.12-18.26c-1.81-9.04-1.01-17.71,3.77-25.77c3.82-6.44,9.23-11.29,15.76-14.85
		c9.78-5.34,19.9-5.49,30.18-1.58c8.77,3.33,15.87,8.68,20.28,17.15c3.7,7.1,4.55,14.7,3.74,22.55c-0.12,1.19-0.81,1.88-2.02,1.99
		c-0.6,0.05-1.2,0.07-1.8,0.07c-16.43,0-32.86,0-49.28,0c-0.48,0-0.95,0-1.52,0c0.09,2.18,0.66,4.15,1.68,5.96
		c3.74,6.58,9.46,9.52,16.99,9.18c5.85-0.26,10.84-2.12,14.39-7.04c0.33-0.45,1.06-0.86,1.61-0.86
		C403.42,105.98,409.25,106.01,415.19,106.01z M363.19,84.23c11.77,0,23.45,0,35.13,0c0.39-7.21-8.41-14.5-17.43-14.53
		C371.69,69.67,362.93,76.82,363.19,84.23z"/>
	<path d="M149.07,98.84c0.39,1.57,0.55,3.02,1.11,4.3c2.87,6.56,7.82,10.32,15.09,10.75c3.87,0.23,7.67-0.09,11.2-1.89
		c2.21-1.13,3.96-2.78,5.54-4.68c0.51-0.61,1.41-1.26,2.14-1.27c5.63-0.1,11.26-0.06,17-0.06c-0.4,2.93-1.57,5.46-3.21,7.79
		c-4.06,5.76-9.62,9.65-16.07,12.24c-15.53,6.24-29.5,3.17-41.74-7.78c-6.37-5.69-9.58-13.23-10.45-21.72
		c-0.68-6.65-0.09-13.2,2.54-19.37c4.94-11.62,13.92-18.65,26.06-21.59c14.85-3.59,30.98,2.62,39.63,15.16
		c5.62,8.15,7.29,17.2,5.52,26.91c-0.17,0.93-0.49,1.23-1.45,1.22c-4.6-0.05-9.19-0.02-13.79-0.02c-12.47,0-24.94,0-37.41,0
		C150.32,98.84,149.85,98.84,149.07,98.84z M149.44,84.23c11.77,0,23.45,0,35.13,0c0.51-7.34-8.2-14.43-17.75-14.51
		C158.06,69.63,149.22,76.97,149.44,84.23z"/>
	<path d="M309.95,26.96c6.04,0,12.02,0,18.1,0c0,33.41,0,66.79,0,100.26c-5.98,0-12,0-18.1,0
		C309.95,93.86,309.95,60.48,309.95,26.96z"/>
</g>
</svg>
